#!OML:ASF H:\ManfredObstacles\Project 1\Capture day 2\Session 1\male.ASF
:FULLY-SPECIFIED
:DEGREES
240
root 3.04787 16.4505 -28.9209 -166.655 2.56297 178.367
lowerback -1.58523 4.54908 -3.59667
upperback 0.180841 6.23804 -2.4968
thorax 0.96948 3.13536 -0.415282
lowerneck -33.956 -0.0579084 2.44655
upperneck 40.2517 -5.14893 1.86179
head 22.5847 -1.81459 -1.1504
rclavicle -5.46161e-014 -2.60408e-014
rhumerus -30.2984 30.9466 -90.2833
rradius 93.2047
rwrist 6.28129
rhand -4.48229 0.211788
rfingers 7.12502
rthumb 21.2908 -28.6388
lclavicle -5.46161e-014 -2.60408e-014
lhumerus -70.4087 -22.6132 88.1249
lradius 96.9659
lwrist -17.044
lhand -10.7258 2.57874
lfingers 7.12502
lthumb 15.2846 31.994
rfemur -1.56756 3.63788 21.2972
rtibia 31.9581
rfoot 15.724 -15.717
rtoes -19.5414
lfemur -43.5681 -4.0041 -19.8777
ltibia 57.1927
lfoot 9.90465 14.6215
ltoes -5.72215
241
root 3.05172 16.4961 -29.2198 -166.377 2.49628 178.251
lowerback -2.05061 4.4856 -3.90969
upperback 0.156806 6.19972 -2.64223
thorax 1.18943 3.11625 -0.352963
lowerneck -34.2193 -0.031728 2.61199
upperneck 40.2416 -5.2655 1.96969
head 22.6578 -1.8005 -1.15469
rclavicle -1.96797e-014 -1.66979e-014
rhumerus -30.6709 31.75 -90.7854
rradius 93.6537
rwrist 6.04495
rhand -4.10939 0.279146
rfingers 7.12502
rthumb 21.6489 -28.5306
lclavicle -1.96797e-014 -1.66979e-014
lhumerus -70.5621 -22.483 87.8373
lradius 97.5193
lwrist -16.9094
lhand -10.8205 2.59177
lfingers 7.12502
lthumb 15.1934 32.0139
rfemur -0.99641 3.57022 21.1338
rtibia 31.7521
rfoot 17.6399 -15.6692
rtoes -17.6026
lfemur -43.1339 -4.39255 -19.9202
ltibia 53.6109
lfoot 9.5183 14.4528
ltoes -5.98491
242
root 3.05455 16.5305 -29.5183 -166.14 2.41647 178.176
lowerback -2.46808 4.4142 -4.17554
upperback 0.12529 6.14875 -2.76406
thorax 1.37782 3.09075 -0.298013
lowerneck -34.5924 -0.0334031 2.6281
upperneck 39.9072 -5.4291 2.19667
head 23.2234 -1.7928 -1.16783
rclavicle 3.35946e-014 8.74653e-015
rhumerus -31.1658 32.4344 -91.3296
rradius 94.1029
rwrist 5.8886
rhand -3.75307 0.389701
rfingers 7.12502
rthumb 21.9911 -28.3802
lclavicle 3.35946e-014 8.74653e-015
lhumerus -70.6744 -22.3694 87.5996
lradius 98.0799
lwrist -16.7971
lhand -10.9294 2.60617
lfingers 7.12502
lthumb 15.0885 32.0363
rfemur -0.46281 3.4672 21.0205
rtibia 31.7197
rfoot 19.4536 -15.7189
rtoes -15.512
lfemur -42.6212 -4.82393 -19.9081
ltibia 50.1583
lfoot 9.10303 14.3806
ltoes -6.28128
243
root 3.05673 16.5528 -29.8168 -165.94 2.3183 178.166
lowerback -2.8422 4.34271 -4.37189
upperback 0.0760438 6.09201 -2.85526
thorax 1.52787 3.0625 -0.255342
lowerneck -34.7232 -0.0225877 2.71767
upperneck 39.9126 -5.55692 2.33686
head 23.2834 -1.79807 -1.1476
rclavicle 4.45278e-014 -1.82882e-014
rhumerus -31.8133 32.9583 -91.9374
rradius 94.5368
rwrist 5.84578
rhand -3.42887 0.555419
rfingers 7.12502
rthumb 22.3023 -28.1775
lclavicle 4.45278e-014 -1.82882e-014
lhumerus -70.7505 -22.3029 87.4093
lradius 98.6265
lwrist -16.7883
lhand -11.0657 2.59939
lfingers 7.12502
lthumb 14.9572 32.0393
rfemur 0.0358736 3.30923 20.9798
rtibia 31.8387
rfoot 21.1781 -15.8431
rtoes -13.7393
lfemur -42.0573 -5.28314 -19.8241
ltibia 46.9145
lfoot 8.73305 14.3961
ltoes -6.66225
244
root 3.05791 16.5632 -30.1158 -165.792 2.203 178.216
lowerback -3.15691 4.2701 -4.51235
upperback 0.0060085 6.02463 -2.90286
thorax 1.6246 3.02908 -0.205979
lowerneck -34.7773 -0.00849485 2.78459
upperneck 39.9471 -5.66725 2.45686
head 23.3416 -1.80891 -1.13007
rclavicle -2.21645e-014 3.02153e-014
rhumerus -32.6442 33.3209 -92.6057
rradius 94.971
rwrist 5.88687
rhand -3.09745 0.74891
rfingers 7.12502
rthumb 22.6204 -27.9456
lclavicle -2.21645e-014 3.02153e-014
lhumerus -70.8122 -22.2553 87.2992
lradius 99.1616
lwrist -16.8081
lhand -11.2294 2.57594
lfingers 7.12502
lthumb 14.7995 32.0275
rfemur 0.522412 3.08763 20.9981
rtibia 32.097
rfoot 22.7613 -16.0626
rtoes -12.2421
lfemur -41.4503 -5.76142 -19.6855
ltibia 43.9621
lfoot 8.46065 14.4794
ltoes -7.12589
245
root 3.05837 16.5616 -30.4152 -165.693 2.06576 178.333
lowerback -3.43254 4.20153 -4.58787
upperback -0.0649949 5.95388 -2.90471
thorax 1.7002 2.9933 -0.149455
lowerneck -34.7864 -0.0119891 2.8059
upperneck 39.9759 -5.76696 2.56524
head 23.38 -1.82742 -1.10672
rclavicle -1.92821e-014 -1.19271e-015
rhumerus -33.6166 33.5077 -93.3055
rradius 95.3757
rwrist 6.01196
rhand -2.79595 0.957573
rfingers 7.12502
rthumb 22.9098 -27.7014
lclavicle -1.92821e-014 -1.19271e-015
lhumerus -70.8069 -22.2383 87.2452
lradius 99.6738
lwrist -16.9547
lhand -11.3774 2.548
lfingers 7.12502
lthumb 14.6569 32.01
rfemur 0.992316 2.81013 21.0829
rtibia 32.4995
rfoot 24.1196 -16.3897
rtoes -11.1171
lfemur -40.8312 -6.22908 -19.5028
ltibia 41.3842
lfoot 8.32161 14.5619
ltoes -7.63508
246
root 3.05755 16.5468 -30.7138 -165.658 1.91247 178.521
lowerback -3.64597 4.13066 -4.59374
upperback -0.132313 5.86851 -2.8579
thorax 1.74695 2.94956 -0.0874356
lowerneck -34.7688 -0.0104354 2.81555
upperneck 40.018 -5.83545 2.63757
head 23.4179 -1.84387 -1.09215
rclavicle 1.11319e-014 -4.17448e-014
rhumerus -34.7183 33.5375 -94.0356
rradius 95.7497
rwrist 6.17917
rhand -2.49818 1.15849
rfingers 7.12502
rthumb 23.1955 -27.4648
lclavicle 1.11319e-014 -4.17448e-014
lhumerus -70.7386 -22.2158 87.2415
lradius 100.157
lwrist -17.1699
lhand -11.5131 2.50715
lfingers 7.12502
lthumb 14.5261 31.9786
rfemur 1.45037 2.47719 21.2358
rtibia 33.0732
rfoot 25.1948 -16.7505
rtoes -10.4881
lfemur -40.2089 -6.64577 -19.2937
ltibia 39.2466
lfoot 8.35598 14.5422
ltoes -8.17281
247
root 3.05536 16.5188 -31.0112 -165.689 1.74821 178.758
lowerback -3.82574 4.14287 -4.47631
upperback -0.158129 5.88354 -2.78289
thorax 1.82382 2.95415 -0.0606876
lowerneck -34.753 -0.142685 2.59307
upperneck 40.0325 -5.98767 2.77993
head 23.448 -1.91638 -1.0195
rclavicle 5.4964e-014 -8.34896e-015
rhumerus -35.8858 33.2024 -94.6055
rradius 96.109
rwrist 6.36296
rhand -2.22497 1.33206
rfingers 7.12502
rthumb 23.4576 -27.258
lclavicle 5.4964e-014 -8.34896e-015
lhumerus -70.517 -22.4013 87.395
lradius 100.57
lwrist -17.4359
lhand -11.667 2.45009
lfingers 7.12502
lthumb 14.3778 31.9322
rfemur 1.87316 2.11417 21.4315
rtibia 33.8609
rfoot 25.8714 -17.1216
rtoes -10.2664
lfemur -39.5895 -6.96222 -19.1113
ltibia 37.5917
lfoot 8.54231 14.3438
ltoes -8.66922
248
root 3.05178 16.4766 -31.3062 -165.807 1.59521 178.987
lowerback -3.9085 4.26909 -4.26362
upperback -0.167216 6.03827 -2.70832
thorax 1.8694 3.029 -0.0872179
lowerneck -34.6774 -0.457966 2.05951
upperneck 40.016 -6.28736 3.05389
head 23.4595 -2.07504 -0.859122
rclavicle 2.85256e-014 -1.59028e-014
rhumerus -37.1637 32.4199 -94.9997
rradius 96.4511
rwrist 6.55019
rhand -1.98609 1.46538
rfingers 7.12502
rthumb 23.6867 -27.0952
lclavicle 2.85256e-014 -1.59028e-014
lhumerus -70.1965 -22.8797 87.7604
lradius 100.915
lwrist -17.651
lhand -11.8075 2.38989
lfingers 7.12502
lthumb 14.2425 31.8815
rfemur 2.25565 1.74508 21.6066
rtibia 34.9087
rfoot 26.1171 -17.4394
rtoes -10.2777
lfemur -38.9398 -7.10324 -19.0618
ltibia 36.4317
lfoot 8.87707 13.9889
ltoes -8.99618
249
root 3.04682 16.4197 -31.5975 -165.995 1.44692 179.198
lowerback -3.92994 4.55946 -3.91039
upperback -0.117864 6.40233 -2.64943
thorax 1.95344 3.2077 -0.198148
lowerneck -34.6195 -1.04821 1.07855
upperneck 39.9317 -6.80944 3.52089
head 23.4728 -2.35344 -0.573665
rclavicle -1.2921e-014 -2.34566e-014
rhumerus -38.4244 31.0783 -95.0444
rradius 96.7688
rwrist 6.72672
rhand -1.79463 1.5393
rfingers 7.12502
rthumb 23.8704 -26.9974
lclavicle -1.2921e-014 -2.34566e-014
lhumerus -69.6694 -23.7847 88.3807
lradius 101.144
lwrist -17.8319
lhand -11.9691 2.30746
lfingers 7.12502
lthumb 14.0868 31.81
rfemur 2.5464 1.38111 21.7517
rtibia 36.2664
rfoot 25.8943 -17.6721
rtoes -10.5182
lfemur -38.2422 -7.00729 -19.1868
ltibia 35.7468
lfoot 9.16919 13.5811
ltoes -8.92709
250
root 3.04022 16.349 -31.8857 -166.241 1.31375 179.332
lowerback -3.8438 5.03296 -3.46062
upperback -0.0492512 7.00193 -2.62739
thorax 2.01288 3.50592 -0.395413
lowerneck -34.5134 -1.94059 -0.393807
upperneck 39.7715 -7.59093 4.21051
head 23.4918 -2.7699 -0.150919
rclavicle -4.41302e-014 1.98785e-015
rhumerus -39.736 29.1225 -94.7366
rradius 97.065
rwrist 6.90953
rhand -1.6942 1.56319
rfingers 7.12502
rthumb 23.9667 -26.9608
lclavicle -4.41302e-014 1.98785e-015
lhumerus -69.0131 -25.1723 89.3098
lradius 101.279
lwrist -17.9402
lhand -12.1047 2.23526
lfingers 7.12502
lthumb 13.9561 31.7469
rfemur 2.75769 1.00915 21.7888
rtibia 37.8619
rfoot 25.308 -17.7792
rtoes -10.7606
lfemur -37.4279 -6.67371 -19.5492
ltibia 35.4372
lfoot 9.23669 13.2964
ltoes -8.2776
251
root 3.03274 16.2632 -32.1692 -166.511 1.16573 179.358
lowerback -3.70779 5.46238 -3.1066
upperback -0.000428966 7.54833 -2.62942
thorax 2.0244 3.7795 -0.573328
lowerneck -34.2536 -2.7892 -1.82301
upperneck 39.5784 -8.33955 4.89494
head 23.4662 -3.17506 0.270273
rclavicle -5.46658e-014 2.3059e-014
rhumerus -41.1123 27.0735 -94.429
rradius 97.2675
rwrist 7.0905
rhand -1.62437 1.53173
rfingers 7.12502
rthumb 24.0336 -26.9835
lclavicle -5.46658e-014 2.3059e-014
lhumerus -68.3721 -26.5154 90.2511
lradius 101.379
lwrist -17.9811
lhand -12.223 2.19329
lfingers 7.12502
lthumb 13.8421 31.7127
rfemur 2.78679 0.606503 21.6941
rtibia 39.8197
rfoot 24.3892 -17.772
rtoes -11.0943
lfemur -36.5295 -6.14375 -20.1528
ltibia 35.5557
lfoot 8.86928 13.2915
ltoes -7.37129
252
root 3.02587 16.1735 -32.4516 -166.819 1.05939 179.535
lowerback -3.50237 6.38556 -2.30717
upperback 0.136583 8.7254 -2.57121
thorax 2.14903 4.36715 -0.898884
lowerneck -33.939 -4.39801 -4.48526
upperneck 39.2067 -9.72585 6.05477
head 23.5589 -3.92613 0.988163
rclavicle -4.16454e-014 -2.54444e-014
rhumerus -42.421 23.9651 -93.1678
rradius 97.7073
rwrist 7.19453
rhand -1.48726 1.44653
rfingers 7.12502
rthumb 24.1651 -27.0513
lclavicle -4.16454e-014 -2.54444e-014
lhumerus -67.5227 -29.0298 91.9483
lradius 101.2
lwrist -18.2282
lhand -12.6213 1.91582
lfingers 7.12502
lthumb 13.4582 31.461
rfemur 2.75997 0.37823 21.7935
rtibia 42.11
rfoot 22.9391 -17.9696
rtoes -11.3346
lfemur -35.8925 -5.43389 -20.6103
ltibia 35.9576
lfoot 8.84851 13.3195
ltoes -5.7728
253
root 3.01341 16.059 -32.7258 -167.12 0.97358 179.277
lowerback -2.6892 7.32626 -1.82707
upperback -0.00476569 9.93043 -2.73156
thorax 1.66495 4.98123 -1.37728
lowerneck -33.3618 -5.98935 -7.2216
upperneck 38.877 -11.2279 7.34444
head 23.7883 -4.73001 1.74998
rclavicle 9.9119e-014 -1.73937e-014
rhumerus -44.2575 20.3197 -92.0716
rradius 97.8612
rwrist 7.5085
rhand -1.93788 1.47607
rfingers 7.12502
rthumb 23.733 -27.0785
lclavicle 9.9119e-014 -1.73937e-014
lhumerus -67.0547 -31.7474 93.9164
lradius 101.269
lwrist -17.5971
lhand -12.4384 2.14567
lfingers 7.12502
lthumb 13.6345 31.6791
rfemur 2.48143 -0.159232 21.2592
rtibia 44.585
rfoot 21.9761 -17.521
rtoes -11.9819
lfemur -34.72 -4.84885 -21.5918
ltibia 36.8369
lfoot 6.85955 14.7229
ltoes -2.65344
254
root 3.00688 15.9094 -32.991 -167.24 0.448934 178.82
lowerback -3.79764 5.2948 -3.43532
upperback 0.164153 7.36021 -2.66172
thorax 2.20981 3.68144 -0.418319
lowerneck -33.2059 -3.26575 -2.78363
upperneck 39.4469 -8.69758 5.45722
head 22.4855 -3.41353 0.691464
rclavicle -2.21645e-014 3.22031e-014
rhumerus -44.9495 23.4997 -95.031
rradius 97.0447
rwrist 7.5202
rhand -1.29625 1.07618
rfingers 7.12502
rthumb 24.3482 -27.3972
lclavicle -2.21645e-014 3.22031e-014
lhumerus -66.5501 -27.3228 91.2801
lradius 101.826
lwrist -17.798
lhand -12.5691 2.32262
lfingers 7.12502
lthumb 13.5086 31.8645
rfemur 1.97127 -0.980453 20.6529
rtibia 47.2523
rfoot 20.6392 -17.2833
rtoes -11.8354
lfemur -33.4228 -4.47813 -22.732
ltibia 37.769
lfoot 5.31716 15.8778
ltoes -5.82154
